<svg viewBox="0 0 800 600" xmlns="http://www.w3.org/2000/svg">
  <rect width="800" height="600" fill="#0a0c0b"/>
  <defs>
    <linearGradient id="sky" x1="0" y1="0" x2="0" y2="1">
      <stop offset="0%" stop-color="#0d1a0f"/>
      <stop offset="100%" stop-color="#0a0c0b"/>
    </linearGradient>
  </defs>
  <rect width="800" height="400" fill="url(#sky)"/>
  <polygon points="100,320 100,180 160,160 160,320" fill="#111410" stroke="#2a2e27" stroke-width="1"/>
  <polygon points="160,160 200,140 200,320 160,320" fill="#0f1310" stroke="#2a2e27" stroke-width="1"/>
  <polygon points="200,200 240,180 320,180 320,320 200,320" fill="#111410" stroke="#2a2e27" stroke-width="1"/>
  <polygon points="320,180 380,160 380,320 320,320" fill="#0e1a10" stroke="#2a2e27" stroke-width="1"/>
  <polygon points="380,160 440,140 500,140 500,320 380,320" fill="#111410" stroke="#2a2e27" stroke-width="1"/>
  <polygon points="500,200 600,200 650,180 650,320 500,320" fill="#0f1310" stroke="#2a2e27" stroke-width="1"/>
  <polygon points="650,180 700,160 720,160 720,320 650,320" fill="#111410" stroke="#2a2e27" stroke-width="1"/>
  <rect x="115" y="200" width="20" height="14" rx="1" fill="#4dff91" opacity="0.15"/>
  <rect x="115" y="224" width="20" height="14" rx="1" fill="#4dff91" opacity="0.1"/>
  <rect x="210" y="210" width="18" height="12" rx="1" fill="#4dff91" opacity="0.2"/>
  <rect x="340" y="190" width="18" height="12" rx="1" fill="#4dff91" opacity="0.25"/>
  <rect x="390" y="180" width="20" height="14" rx="1" fill="#4dff91" opacity="0.2"/>
  <rect x="450" y="180" width="20" height="14" rx="1" fill="#b8ff6e" opacity="0.15"/>
  <rect x="510" y="220" width="18" height="12" rx="1" fill="#4dff91" opacity="0.18"/>
  <rect x="660" y="190" width="18" height="12" rx="1" fill="#4dff91" opacity="0.2"/>
  <rect x="0" y="320" width="800" height="80" fill="#0d1208"/>
  <ellipse cx="400" cy="325" rx="380" ry="18" fill="#4dff91" opacity="0.04"/>
  <text x="400" y="450" font-family="Syne" font-size="14" fill="#4dff91" text-anchor="middle" opacity="0.4" letter-spacing="0.3em">MIT CSAIL · STATA CENTER · CAMBRIDGE MA</text>
</svg>
